<svg width="101" height="51" viewBox="0 0 101 51" fill="none" xmlns="http://www.w3.org/2000/svg">
<path d="M42.5174 36.9781L46.1902 24.4453H52.9755L45.6922 44.5474H37.1638L37.2883 33.3175L33.1175 44.5474H24.9626L24.7759 24.4453H31.5612L30.8142 36.854L35.234 24.4453H42.6419L42.5174 36.9781Z" fill="black"/>
<path d="M52.1663 44.5474C52.851 41.8796 53.349 39.708 53.6603 37.9708C54.096 35.9234 54.4695 33.5657 54.7808 31.0219H61.4416C60.8191 33.5036 60.2589 35.7993 59.8231 37.9708C59.4496 39.7701 59.0761 42.0036 58.7026 44.5474H52.1663Z" fill="black"/>
<path d="M55.9012 28.7883C55.4655 28.292 55.2787 27.6095 55.4655 26.8029C55.6522 25.9964 56.0257 25.3139 56.7105 24.8175C57.3953 24.2591 58.329 24.011 59.4495 24.011C60.57 24.011 61.3793 24.2591 61.8773 24.8175C62.3753 25.3759 62.4998 25.9964 62.3753 26.8029C62.1886 27.6095 61.8151 28.292 61.1303 28.7883C60.4455 29.2847 59.5118 29.5329 58.3913 29.5329C57.1463 29.5949 56.337 29.3467 55.9012 28.7883Z" fill="black"/>
<path d="M65.6124 44.1752C64.0561 43.7409 62.6866 43.0584 61.4416 42.1898L65.0521 38.219C65.7991 38.8394 66.7329 39.2737 67.8534 39.646C68.9739 40.0183 70.0322 40.1424 70.9037 40.1424C71.7129 40.1424 72.3977 40.0183 72.8957 39.7701C73.3937 39.5219 73.6427 39.2117 73.7672 38.8394C73.8295 38.5292 73.7672 38.3431 73.5805 38.1569C73.3937 37.9708 73.0825 37.9088 72.709 37.9088C72.46 37.9088 72.211 37.9088 71.8997 37.9088C71.5885 37.9088 71.3394 37.9708 71.1527 37.9708C70.1567 38.0949 69.1607 38.1569 68.1647 38.1569C66.4839 38.1569 65.2389 37.8467 64.3051 37.2263C63.3713 36.6058 63.0601 35.6132 63.3091 34.1861C63.6203 32.573 64.6164 31.2701 66.2971 30.4015C67.9779 29.5329 70.3434 29.0365 73.3315 29.0365C74.8255 29.0365 76.2573 29.2226 77.6268 29.6569C79.0586 30.0913 80.2413 30.7117 81.2373 31.5183L77.5023 34.7445C76.5685 34.1861 75.6348 33.8139 74.7632 33.5657C73.8917 33.3175 72.958 33.1934 72.0865 33.1934C71.464 33.1934 70.8414 33.3175 70.3434 33.5657C69.8454 33.8139 69.5342 34.1241 69.4719 34.4343C69.4097 34.6825 69.4719 34.8686 69.6587 35.0548C69.8454 35.1788 70.0944 35.3029 70.4057 35.3029C70.7169 35.3029 71.1527 35.3029 71.713 35.2409C73.0825 35.1788 74.0785 35.1168 74.7632 35.1168C76.693 35.1168 78.1248 35.427 79.0586 36.1095C79.9923 36.7299 80.3658 37.7226 80.1168 39.0876C79.7433 41.073 78.7473 42.5 77.0043 43.4307C75.2612 44.2993 73.0825 44.7956 70.3434 44.7956C68.7249 44.8577 67.1686 44.6095 65.6124 44.1752Z" fill="black"/>
<path d="M98.9788 30.2153C99.8504 30.8978 100.411 31.8285 100.722 33.0073C101.033 34.1861 101.095 35.4891 100.846 36.854C100.597 38.219 100.099 39.5219 99.3523 40.7628C98.6053 42.0037 97.6716 42.9963 96.5511 43.7409C95.4305 44.4854 94.2478 44.8577 93.0028 44.8577C91.571 44.8577 90.3882 44.5474 89.4545 43.927C88.5207 43.3066 87.9604 42.3759 87.6492 41.135C87.4624 42.1898 87.2134 43.865 86.8399 46.2226C86.5287 48.4562 86.2797 50.0693 86.0929 51H79.8056C80.5526 47.5876 81.2373 43.989 81.8599 40.2044C82.5446 36.4817 83.1049 32.8832 83.6029 29.4088H88.9564L89.1432 32.8832C89.8902 31.5803 90.824 30.6496 92.0067 30.0292C93.1273 29.4088 94.4345 29.0985 95.8663 29.0985C97.1113 29.1606 98.1073 29.5328 98.9788 30.2153ZM93.2518 39.0876C93.9365 38.5912 94.31 37.8467 94.4345 37.0401C94.6213 36.1095 94.4968 35.3029 94.061 34.7445C93.6253 34.1241 93.0028 33.8759 92.1312 33.8759C91.1352 33.8759 90.326 34.1241 89.7035 34.6204C89.081 35.1168 88.7074 35.9234 88.5207 37.1022C88.3962 37.7226 88.4584 38.281 88.7074 38.7153C88.9565 39.1496 89.33 39.4599 89.7657 39.646C90.2015 39.8321 90.6372 39.9562 91.073 39.9562C91.8822 39.8321 92.6293 39.5839 93.2518 39.0876Z" fill="black"/>
<path d="M54.4073 10.5475C55.6523 7.75549 57.8311 6.39052 60.9436 6.39052C61.5039 6.39052 62.0019 6.45257 62.4999 6.51461L60.5079 12.719C59.2628 12.2226 58.2046 11.9745 57.3331 11.9745C56.2748 11.9745 55.4655 12.2847 54.843 12.9051C54.2205 13.5256 53.847 14.3942 53.6603 15.4489L53.2868 17.2482C53.0378 18.5511 52.851 20.0402 52.602 21.6533H45.9412C46.5637 18.9854 47.0617 16.5037 47.4974 14.146C47.9332 11.7883 48.3067 9.24454 48.618 6.57666C49.8007 6.6387 50.7345 6.6387 51.4192 6.6387C52.104 6.6387 53.0378 6.6387 54.2205 6.57666L54.4073 10.5475Z" fill="black"/>
<path d="M26.8924 1.48905C26.2076 4.59124 25.5851 7.9416 24.9003 11.5401C24.2778 15.1387 23.7176 18.489 23.3441 21.5912H13.3839L9.33763 6.45255L7.15885 21.5912H0C0.809261 17.9927 1.43177 14.6423 1.99203 11.5401C2.55228 8.43795 3.05029 5.08759 3.5483 1.48905H13.7574L17.7415 17L20.0448 1.48905H26.8924Z" fill="black"/>
<path d="M27.8884 19.6679C26.6433 18.2409 26.2698 16.3175 26.6433 13.9599C27.0791 11.6642 28.1374 9.80292 29.8804 8.31387C31.6234 6.88686 34.1134 6.14233 37.226 6.14233C39.3425 6.14233 41.0855 6.51459 42.3928 7.19708C43.7001 7.87956 44.5716 8.81022 45.0696 9.98905C45.5676 11.1679 45.6298 12.4708 45.3808 13.9599C44.9451 16.3175 43.8246 18.2409 42.0193 19.6679C40.1518 21.0949 37.6617 21.8394 34.4247 21.8394C31.3121 21.8394 29.0711 21.0949 27.8884 19.6679ZM38.2842 16.2555C38.969 15.6971 39.4048 14.8905 39.5915 13.9599C39.7783 13.0292 39.5915 12.2847 39.0935 11.7263C38.5955 11.1679 37.7862 10.8577 36.5412 10.8577C35.2962 10.8577 34.4247 11.1679 33.7399 11.7263C33.0552 12.2847 32.6817 13.0292 32.4949 13.9599C32.3082 14.8905 32.4949 15.6971 32.9307 16.2555C33.3664 16.8139 34.2379 17.1241 35.4207 17.1241C36.6035 17.1241 37.5372 16.8759 38.2842 16.2555Z" fill="black"/>
<path d="M76.4441 11.4161C74.7633 11.292 73.207 11.2299 71.8375 11.1679L71.2773 14.0839C71.0905 15.0766 71.1528 15.8832 71.5263 16.4416C71.8375 17 72.5845 17.3102 73.705 17.3102C74.1408 17.3102 74.5766 17.2482 74.9501 17.1861C74.7633 17.8686 74.5766 18.5511 74.4521 19.2336C74.3898 19.5438 74.2653 20.3504 74.0786 21.5292C73.207 21.6533 72.5223 21.7774 71.962 21.7774C71.4018 21.8394 70.6548 21.8394 69.7832 21.8394C67.6045 21.8394 66.1727 21.3431 65.4879 20.2883C64.8032 19.2336 64.5542 17.8066 64.9277 15.9453L65.7992 11.292C64.9277 11.354 63.9939 11.354 63.0602 11.4781L63.9317 6.57665C64.8654 6.57665 65.7369 6.26643 66.5462 5.64599C67.2932 5.02555 67.8535 4.28103 68.1025 3.47446H75.6348C74.4521 4.77738 73.207 5.83212 71.962 6.57665H77.3156L76.4441 11.4161Z" fill="black"/>
<path d="M87.1512 21.5912C87.7737 18.8613 88.2717 16.3796 88.6452 14.0839C88.7697 13.2774 88.7074 12.5949 88.3962 12.1606C88.0849 11.6642 87.6492 11.4161 87.0267 11.4161C86.4042 11.4161 85.7817 11.7263 85.2214 12.3467C84.6611 12.9672 84.2876 13.8358 84.1009 14.9526V14.8905C83.5406 17.9307 83.2294 20.1642 83.0426 21.5912H76.3818C77.0043 18.9234 77.689 15.3248 78.4983 10.7956C79.3076 6.26643 79.8678 2.66788 80.1791 0H86.7777L85.2836 8.56204L84.9724 9.98905C85.6572 8.68613 86.4664 7.75548 87.4624 7.13504C88.4584 6.5146 89.5167 6.20438 90.6372 6.20438C91.7577 6.20438 92.6915 6.45255 93.3763 6.9489C94.1233 7.44525 94.6213 8.12774 94.8703 8.93431C95.1193 9.74088 95.1815 10.6715 94.9948 11.7263L94.31 15.6971C93.8743 18.1788 93.563 20.1022 93.3763 21.5912H87.1512Z" fill="black"/>
</svg>
