<svg width="41" height="39" viewBox="0 0 41 39" fill="none" xmlns="http://www.w3.org/2000/svg">
<path fill-rule="evenodd" clip-rule="evenodd" d="M6 0C2.68629 0 0 2.68629 0 6V33C0 36.3137 2.68629 39 6 39H35C38.3137 39 41 36.3137 41 33V6C41 2.68629 38.3137 0 35 0H6ZM26.1402 14.1085C28.1963 15.604 30.6629 16.4053 33.1915 16.3991V11.2997C31.8231 11.3 30.4848 10.8912 29.3433 10.1243C28.541 9.59897 27.8526 8.91282 27.3202 8.10786C26.7878 7.30289 26.4227 6.39604 26.247 5.44275C26.1724 5.01572 26.1367 4.58262 26.1402 4.14893H21.0859V24.5385C21.0859 25.4564 20.8005 26.3508 20.2704 27.094C19.7403 27.8372 18.9926 28.3913 18.1342 28.677C17.2757 28.9627 16.3503 28.9655 15.4902 28.6849C14.6301 28.4044 13.8792 27.8548 13.3448 27.1148C12.8103 26.3748 12.5197 25.4821 12.5144 24.5642C12.5091 23.6463 12.7893 22.7502 13.3151 22.0038C13.8409 21.2575 14.5854 20.699 15.4422 20.4082C16.299 20.1173 17.2244 20.109 18.0861 20.3845V15.1385C16.2029 14.8733 14.285 15.1985 12.5887 16.0708C10.8924 16.943 9.49854 18.3206 8.59359 20.0195C7.68865 21.7184 7.3157 23.6575 7.52464 25.5775C7.73357 27.4975 8.51441 29.307 9.76276 30.764C11.0111 32.2209 12.6675 33.2559 14.5103 33.7305C16.3532 34.2051 18.2948 34.0967 20.0754 33.4199C21.856 32.743 23.3908 31.5299 24.4746 29.9428C25.5584 28.3557 26.1395 26.4702 26.1402 24.5385V14.1085Z" fill="black"/>
</svg>
