<svg width="54" height="39" viewBox="0 0 54 39" fill="none" xmlns="http://www.w3.org/2000/svg">
<path d="M52.8693 6.1191C52.5636 4.93821 51.968 3.86909 51.146 3.0254C50.3008 2.15576 49.2648 1.53369 48.1359 1.21789C43.911 0.0120795 26.9843 0.0120798 26.9843 0.0120798C19.9277 -0.0748542 12.8729 0.307503 5.8596 1.15699C4.73068 1.49612 3.69666 2.13209 2.84951 3.00835C2.01712 3.87556 1.4142 4.94496 1.09924 6.11667C0.342652 10.5301 -0.0249509 15.0113 0.00138848 19.5C-0.0256079 23.9846 0.341093 28.4644 1.09924 32.8833C1.40745 34.0501 2.00812 35.1147 2.84276 35.9746C3.67739 36.8345 4.71675 37.4557 5.8596 37.7845C10.1408 38.9879 26.9843 38.9879 26.9843 38.9879C34.0498 39.0749 41.1136 38.6926 48.1359 37.843C49.2648 37.5272 50.3008 36.9051 51.146 36.0355C51.9677 35.1919 52.5626 34.1227 52.867 32.9418C53.6434 28.5301 54.0209 24.047 53.9941 19.556C54.0525 15.046 53.6755 10.5418 52.8693 6.11667V6.1191ZM21.603 27.8408V11.1616L35.6861 19.5024L21.603 27.8408Z" fill="black"/>
</svg>
